<svg xmlns="http://www.w3.org/2000/svg" viewBox="15.55 31.01 569.29 441.55" role="img" aria-label="AKC monogram"><title>AKC</title><path transform="matrix(1,0,0,-1,446.8605,210.2998)" d="M0 0C.16-1.92 3.03-11.46 3.36-13.06 3.7-14.67 5.63-16.41 5.85-16.73 6.08-17.05 10.36-28.07 10.37-26.11 10.38-24.16 6.1-15.83 5.01-15.07 3.94-14.32 3.08-7.0 2.17-6.53 1.28-6.07 1.12-1.17 .401-.011-.309 1.14-1.11 8.33-1.11 8.33-2.42 8.02-.16 1.92 0 0M-2.33 14.82C-2.8 14.25-2.01 11.99-2.14 10.91-2.25 9.82-1.4 9.93-1.08 11.35-.744 12.76-.778 17.22-1.34 16.46-1.9 15.69-1.78 15.51-2.33 14.82M-4.88 58.62C-4.88 58.62-5.17 56.74-5.09 55.11-5.0 53.49-4.31 52.03-4.91 51.69-5.5 51.35-4.62 49.38-4.73 48.1-4.83 46.82-4.74 42.44-4.6 41.08-4.46 39.71-4.03 35.01-4.27 34.4-4.51 33.8-4.41 33.88-4.15 32.18-3.9 30.46-2.59 20.12-2.86 19.51-3.13 18.92-.79 15.63-1.64 20.19-2.47 24.74-2.58 27.3-2.75 29.62-2.93 31.93-3.28 39.28-3.63 39.88-3.98 40.48-4.42 49.55-4.14 49.89-3.88 50.24-4.22 52.55-4.35 53.75-4.46 54.94-4.41 58.8-4.88 58.62M-188.57-33.75C-188.29-28.55-189.01-23.87-189.69-19.08-190.84-21.29-190.39-27.29-188.57-33.75M-197.32 33.08C-197.39 30.09-197.16 27.18-195.93 24.55-195.67 24.01-195.69 23.32-195.6 22.69-195.33 20.25-195.22 17.77-194.77 15.39-194.29 12.77-194.19 10.06-193.25 7.56-192.45 5.45-192.84 2.99-192.45 .733-191.85-2.72-191.58-6.25-191.46-9.83-191.38-12.32-190.81-14.74-190.4-17.61-189.61-16.34-189.69-15.52-189.83-14.69-190.17-12.6-190.83-10.54-190.79-8.41-190.68-3.87-191.78 .378-192.06 4.82-192.11 5.92-192.09 7.03-192.32 8.12-192.97 11.18-193.37 14.3-193.91 17.39-194.97 23.46-195.64 29.65-197.42 35.45-197.39 34.66-197.3 33.88-197.32 33.08M-93.07-251.77C-93.08-251.84-93.09-251.92-93.06-251.97-92.98-252.08-92.91-252.01-92.92-251.8-92.93-251.67-92.97-251.54-93.0-251.38-93.04-251.53-93.06-251.64-93.07-251.77M-75.21 20.09C-75.37 20.12-75.45 19.97-75.4 19.8-75.39 19.74-75.34 19.66-75.29 19.64-75.14 19.58-75.03 19.65-74.99 19.83-75.06 19.92-75.11 20.08-75.21 20.09M-69.99-87.9C-69.98-88.02-69.86-88.21-69.75-88.23-69.51-88.3-69.3-88.14-69.26-87.89-69.21-87.62-69.37-87.49-69.61-87.43-69.93-87.44-70-87.67-69.99-87.9M-73.02-135.56C-73.16-136.13-73.97-136.61-73.49-137.28-72.7-136.78-73.3-136.12-73.02-135.57ZM-71.29-112.08C-71.28-111.85-71.35-111.62-71.62-111.67-71.72-111.68-71.85-111.88-71.86-112.0-71.89-112.24-71.77-112.41-71.51-112.43-71.43-112.31-71.31-112.19-71.29-112.08M-68.32-117.51C-68.28-117.28-68.2-117.06-68.22-116.84-68.22-116.72-68.38-116.55-68.47-116.56-68.75-116.61-68.81-116.84-68.76-117.34-68.74-117.35-68.53-117.43-68.32-117.51M-68.34-119.92C-68.33-119.72-68.47-119.53-68.53-119.34-68.67-119.52-68.84-119.68-68.94-119.87-69.05-120.11-68.97-120.31-68.78-120.4-68.41-120.4-68.35-120.12-68.34-119.92M-74.07-144.85C-74.11-144.62-73.9-144.09-74.26-144.25-74.51-144.36-74.36-144.97-74.17-145.32-74.13-145.15-74.05-144.99-74.07-144.85M-70.86-100.74C-71.33-100.79-71.22-101.18-71.25-101.46-71.27-101.66-71.22-102.01-70.96-101.89-70.64-101.77-70.66-101.38-70.63-101.07-70.71-100.95-70.78-100.73-70.86-100.74M-72.13-118.5C-72.0-117.75-71.76-117.01-72.15-115.81-72.53-117.07-72.36-117.79-72.13-118.5M-72.46 5.7C-72.31 5.46-72.06 5.18-71.81 5.16-71.52 5.14-71.58 5.49-71.6 5.7-71.62 6.03-71.73 6.29-72.14 6.25-72.4 6.13-72.58 5.89-72.46 5.7M-67.72-91.94C-67.94-92.98-66.57-92.78-66.57-93.62-66.58-92.37-66.58-92.37-67.72-91.94M-102.06-167.88C-102.06-166.81-102.06-165.75-102.08-164.68-102.72-165.82-102.82-166.89-102.06-167.88M-71.59-106.68C-71.49-107.07-71.18-107.35-70.73-107.23-70.4-107.12-70.28-106.76-70.29-106.41-70.3-105.97-70.49-105.7-71.03-105.76-71.43-105.93-71.69-106.24-71.59-106.68M-70.57-95.39C-70.55-95.58-70.36-95.82-70.19-95.85-69.81-95.93-69.66-95.58-69.55-95.27-69.3-94.48-69.46-93.88-70.58-93.57-70.58-94.32-70.62-94.87-70.57-95.39M-68.14-51.95C-68.01-52.16-67.7-52.18-67.52-52-66.83-51.3-67.23-50.52-67.15-49.77-67.14-49.71-67.22-49.64-67.4-49.38-68.0-50.35-68.64-51.06-68.14-51.95M-73.02-135.57C-72.95-132.75-72.87-129.92-72.8-126.78-73.43-127.4-73.62-127.77-73.58-128.17-73.42-129.92-73.4-131.65-73.83-133.45-74.02-134.22-74.25-135.34-73.02-135.56ZM-4.42 67.28C-5.36 64.97-5.3 62.73-4.61 60.56-3.33 62.91-4.04 65.08-4.42 67.28M-74.83-167.52C-75.2-161.55-74.5-155.48-74.75-149.51-75.0-155.54-75.25-161.57-75.5-167.61-75.28-167.58-75.06-167.54-74.83-167.52M-64.66-69.53C-64.31-68.58-64.38-67.75-64.9-67.05-65.53-66.2-65.93-65.57-64.78-64.45-63.88-63.55-64.11-60.57-64.85-59.69-65.06-59.45-65.38-59.36-65.7-59.52-65.89-59.61-66.18-59.86-66.18-60.02-66.21-60.94-66.69-61.99-65.73-62.62-65.34-62.87-65.03-63.08-65.44-63.73-66.89-66.04-66.0-68.39-66.69-71.09-65.65-70.52-64.97-70.4-64.66-69.53M109.64 7.75C109.22 7.3 108.89 6.26 108.22 6.77 107.55 7.29 108.46 7.87 108.84 8.39 109.24 8.94 109.63 9.5 110.06 10.02 110.41 10.44 110.7 10.85 110.7 11.36 110.7 12.05 111.09 12.94 110.27 13.27 109.59 13.54 109 12.99 108.54 12.48 107.48 11.33 106.27 10.32 104.89 9.73 103.53 9.14 102.37 8.31 101.34 7.29 98.11 4.11 95.54 .366 92.81-3.23 90.3-6.53 87.93-9.96 85.56-13.38 83.73-16.02 81.66-18.49 80.03-21.27 77.17-26.1 73.88-30.69 71.0-35.52 69.07-38.75 66.62-41.76 64.2-44.74 60.82-48.91 57.06-52.42 52.54-55.1 47.27-58.23 42.01-58.68 36.78-56.73 34.25-55.79 32.0-54.39 29.58-53.27 27.26-52.18 25.21-50.72 23.36-49.1 20.75-46.84 18.49-44.14 16.24-41.48 13.55-38.31 11.38-34.74 9.26-31.1 6.57-26.46 4.43-21.52 2.33-16.56 1.29-14.09 .629-11.4-.309-8.87-2.05-4.21-3.11 .71-4.06 5.64-5.48 12.98-6.45 20.46-7.08 28.01-7.47 32.7-7.58 37.44-7.75 42.16-7.93 47.43-7.94 52.74-7.86 58.06-7.82 61.04-7.99 63.99-7.9 66.99-7.8 69.98-7.55 72.99-7.53 75.97-7.51 77.97-7.86 79.97-7.32 82.0-6.96 83.4-6.91 84.77-6.93 86.14-6.97 88.63-6.66 91.14-6.49 93.64-6.3 96.31-5.88 98.97-5.5 101.64-4.83 106.37-3.79 111.04-2.43 115.67-1.84 117.66-.984 119.6-.332 121.58 1.78 127.87 4.53 133.91 8.59 139.39 9.76 140.95 10.94 142.72 12.48 143.75 14.71 145.22 16.62 147.13 19.21 148.17 21.79 149.2 23.82 149.36 26.09 148.33 28.32 147.32 30.32 146.0 32.47 144.86 33.53 144.31 34.3 143.48 34.9 142.53 37.07 139.11 38.27 135.37 37.82 130.9 37.47 127.38 40.78 124.64 44.13 125.32 45.89 125.67 47.91 125.55 49.36 126.47 51.45 127.8 52.69 125.99 54.39 126.42 54.47 126.43 54.55 126.41 54.63 126.42 57.97 126.82 61.33 127.24 64.68 127.64 65.41 127.72 66.12 127.9 66.8 128.31 67.24 128.56 67.7 128.83 68.18 128.71 69.97 128.26 71.68 129.35 73.43 129.61 75.07 129.85 77.11 132.23 77.05 133.75 76.99 135.1 77.58 135.93 78.57 136.69 79.39 137.34 79.58 138.12 79.54 139.11 79.44 142.52 77.6 145.01 75.73 147.32 74.1 149.35 72.48 151.46 70.44 153.15 69.5 153.92 68.74 154.9 67.54 155.23 65.56 155.8 64.5 157.74 62.44 158.15 62.25 158.19 62.13 158.47 62.01 158.68 60.72 160.85 58.51 161.69 56.13 162.24 55.44 162.4 54.78 162.53 54.13 162.81 50.63 164.25 46.85 164.95 42.97 165.12 39.96 165.25 36.89 165.2 33.9 165.28 29.89 165.39 26.06 163.6 22.13 163.55 21.98 163.54 21.81 163.46 21.67 163.37 20.35 162.49 18.86 162.3 17.44 161.98 9.62 160.24 2.44 156.8-4.18 151.82-11.91 146.01-18.27 138.91-23.45 130.73-24.82 128.58-26.4 126.51-27.55 124.25-30.36 118.75-32.81 113.12-34.94 107.36-36.47 103.2-37.91 99.01-39.25 94.8-41.09 88.98-42.6 83.13-43.6 77.19-44.73 70.39-46.24 63.62-46.96 56.79-47.41 52.5-47.78 48.21-48.12 43.93-48.42 40.11-48.31 36.33-48.49 32.52-48.82 24.96-47.96 17.61-47.09 10.28-46.6 6.18-45.97 2.11-45.23-1.92-44.52-5.78-43.71-9.62-42.35-13.25-41.38-15.85-40.42-18.45-39.58-21.11-38.03-26.1-35.99-30.85-33.27-35.16-31.13-38.54-28.57-41.64-25.98-44.7-23.81-47.25-21.41-49.52-18.92-51.74-17.21-53.25-15.03-54.13-13.6-55.88-11.66-58.26-8.71-59.11-6.16-60.52-5.23-61.04-4.52-61.83-3.49-62.22-.274-63.43 2.88-64.78 6.11-66.0 7.4-66.49 8.77-66.82 10.14-67.11 12.71-67.67 15.33-68.12 17.92-68.65 20.06-69.07 22.14-69.81 24.33-69.93 28.99-70.19 33.48-71.26 38.27-70.86 39.61-70.74 41.01-70.59 42.33-70.74 45.76-71.11 49.26-70.16 52.66-69.62 57.42-68.84 62.28-67.73 66.9-65.72 69.79-64.45 72.79-63.41 75.38-61.36 77.85-59.43 80.55-57.84 83.09-55.97 84.59-54.86 85.64-53.9 86.1-52.21 86.26-51.62 86.65-51.17 87.19-50.84 89.67-49.31 91.63-47.23 93.47-44.96 94.88-43.24 96.07-41.34 97.5-39.69 101.49-35.03 105.16-30.06 109.72-25.87 111.28-24.44 113.06-22.98 113.82-21.02 114.55-19.13 115.55-17.64 117.0-16.21 117.99-15.25 118.89-14.03 118.75-12.47 118.68-11.76 119.05-11.02 119.71-10.51 121.19-9.36 121.99-7.46 123.83-6.72 124.23-6.56 124.38-6.11 124.54-5.7 125.07-4.39 125.89-3.12 125.42-1.69 125.27-1.22 125.44-.778 125.84-.344 127.5 1.49 128.59 3.77 130.43 5.47 130.74 5.76 131.01 6.11 131.25 6.47 131.52 6.87 131.98 7.33 131.53 7.76 131.14 8.11 130.63 7.8 130.18 7.54 128.88 6.75 127.68 5.78 126.53 4.75 126.08 4.35 125.66 3.91 125.2 3.52 124.88 3.25 124.47 3.02 124.09 3.23 123.7 3.44 123.8 3.91 123.83 4.31 123.9 5.1 124.4 5.68 124.91 6.28 125.4 6.87 125.79 7.54 126.19 8.19 126.58 8.81 127.47 9.21 127.44 10.23 125.4 9.15 124.37 7.17 122.59 6.16 120.86 5.16 120.38 2.47 117.91 2.35 117.96 3.46 119.23 4.07 118.99 5.13 117.39 5.22 117.38 3.08 115.82 2.69 116.22 3.88 117.06 4.52 117.63 5.32 118.18 6.09 118.52 6.97 117.88 7.54 116.85 8.45 117.27 9.27 117.97 10.24 118.19 10.54 118.56 10.91 118.19 11.28 117.61 11.46 117.22 11.11 116.92 10.68 115.63 8.85 113.99 7.35 112.39 5.81 111.21 4.7 110.04 3.65 109.3 2.12 108.85 1.18 107.91 .389 107.12-.378 106.76-.721 106.25-1.28 105.37-.446 108.71 2.88 110.93 6.93 113.46 11.4 111.52 10.4 110.73 8.91 109.64 7.75M-100.98-147.34C-101.25-147.52-101.29-147.75-101.19-147.97-101.13-148.15-100.95-148.16-100.78-148.03-100.55-147.86-100.41-147.64-100.58-147.43-100.65-147.34-100.85-147.36-100.98-147.34M-76.56-188.36C-76.94-189.21-76.92-189.84-76.88-190.84-76.32-189.83-76.43-189.2-76.56-188.36M-72.91 34.87C-72.89 36.72-72.89 36.72-74.62 37.35-74.38 36.27-73.86 35.53-72.91 34.87M-78.46 43.28C-79.3 44.34-79.8 45.02-80.36 45.65-80.7 46.03-81.08 46.69-81.74 46.05-82.21 45.6-81.73 45.17-81.36 44.88-80.63 44.31-80.0 43.61-78.46 43.28M-77.78 36.59C-77.15 34.63-76.49 32.69-75.17 31.13-74.93 30.85-74.69 30.42-74.2 30.67-73.61 30.99-73.63 31.63-73.88 31.94-75.15 33.49-75.93 35.44-77.78 36.59M-83.31 128.47C-83.29 124.97-84.08 121.98-84.64 118.98-85.6 113.9-86.65 108.85-88.16 103.83-88.44 102.9-89.43 101.37-88.03 101.19-87.02 101.07-86.96 102.75-86.78 103.64-85.8 108.3-84.35 112.91-83.47 117.59-82.87 120.72-82.78 123.82-82.42 126.93-82.37 127.32-82.35 127.74-83.31 128.47M-96.63-155.87C-97.8-158.01-96.33-160.07-97.84-162.18-98.03-161.56-98.39-161.04-98.3-160.54-97.75-157.67-98.54-154.98-98.22-152.13-97.86-148.98-98.3-145.89-97.69-142.71-97.61-142.29-97.72-141.89-98.04-141.64-98.25-141.45-98.59-141.22-98.86-141.26-99.34-141.34-99.61-141.79-99.57-142.21-99.48-143.54-99.56-144.96-99.15-146.17-98.79-147.22-98.68-148.1-99.33-149.16-99.96-150.16-99.99-151.2-99.94-152.26-99.9-152.94-99.74-153.66-100.51-154.28-101.19-153.88-100.68-153.28-100.71-152.77-100.78-151.59-100.1-150.16-101.68-149.46-102.28-149.19-102.2-146.37-101.58-146.09-99.61-145.17-100.3-143.59-100.05-142.4-99.62-140.33-100.04-138.25-99.73-136.13-99.62-135.42-99.97-134.9-100.6-134.61-101.78-134.1-102.01-133.1-102.03-131.91-102.08-129.84-102.43-127.85-101.7-125.67-101.16-124.04-101.53-122.46-102.32-121.06-103.15-119.62-103.28-118.04-103.08-116.27-102.6-111.91-102.33-107.56-101.98-103.21-101.96-102.88-101.91-102.51-102.03-102.25-103.13-99.89-102.64-97.13-102.24-94.67-101.55-90.53-101.91-86.5-101.29-82.43-101.03-80.81-101.71-79.17-100.62-77.54-100.46-77.29-100.43-76.83-100.57-76.6-101.87-74.36-100.9-71.74-100.77-69.3-100.65-66.97-100.61-64.66-100.59-62.33-100.53-57.86-101.15-53.45-100.5-48.93-99.99-45.42-100.61-42.11-100.52-38.69-100.43-35.3-100.22-31.89-100.69-28.6-101.06-26.01-101-23.34-101.24-20.75-101.71-15.87-102.19-10.99-103.04-6.18-103.58-3.08-104.18 0-104.85 3.06-105.96 8.14-108.06 12.76-110.21 17.38-112.47 22.25-115.87 26.19-120.01 29.54-122.51 31.56-125.52 32.87-129.29 32.52-131.15 32.36-133.03 32.36-134.88 32.4-138.52 32.47-142.12 32.47-145.84 31.47-147.36 31.06-148.96 31.61-150.63 31.16-156.2 29.68-161.74 29.89-167.28 29.49-167.78 29.45-168.3 29.55-168.77 29.66-170.44 30.05-172.1 30.37-173.91 30.42-177.19 30.51-179.06 32.63-179.57 35.3-180.09 37.98-177.85 39.26-174.88 41.47-173.94 42.16-173.08 42.7-171.95 43.09-169.87 43.81-168.21 45.44-166.32 46.63-163.85 48.19-161.35 49.72-158.81 51.16-156.55 52.45-156.12 55.51-154.18 57.23-148.0 62.68-142.68 68.76-137.91 75.29-137.04 76.49-135.93 77.53-135.03 78.73-130.56 84.72-127.84 91.2-125.73 97.99-124.21 102.92-123.51 107.81-122.89 112.74-122.54 115.6-122.59 118.38-122.8 121.17-123.1 125.11-123.25 129.07-123.13 133.06-123.08 135.56-121.3 137.47-118.1 137.47-116.42 137.47-115.74 139.21-114.42 140.7-114.26 140.88-112.91 143.38-112.67 143.42-107.99 144.47-101.14 155.08-96.44 155.78-94.26 156.1-92.89 153.71-90.69 153.84-89.81 153.88-88.52 158.88-87.68 159.28-85.77 160.19-83.88 161.79-83.01 160.06-81.64 157.33-82.02 166.74-79.6 165.29-78.71 166.07-79.08 171.06-79.0 171.84-78.94 172.33-78.96 172.85-78.35 173.11-77.92 173.29-77.48 173.15-77.23 172.83-76.55 172.01-75.24 167.29-73.96 167.45-72.94 167.57-72.54 163.21-72.04 162.43-70.28 159.73-73.44 129.69-73.73 126.26-74.11 121.62-75.97 117.09-76.56 112.47-76.69 111.37-77.13 110.24-77.64 109.13-78.55 107.2-79.3 105.23-79.58 103.16-79.97 100.23-81.22 97.41-82.27 94.56-83.42 91.48-84.52 88.38-85.78 85.32-88.07 79.74-91.07 74.42-94.73 69.36-97.68 65.26-100.59 61.14-103.59 56.92-102.68 56.38-101.66 56.19-100.7 56.41-96.36 57.4-92.22 56.74-88.01 56.74-87.51 56.74-87.02 56.74-86.55 56.55-83.17 55.23-79.89 53.77-76.73 52.1-76.31 51.88-75.71 51.62-75.94 51.08-76.61 49.6-75.55 49.07-74.73 48.4-73.03 46.99-71.92 45.15-70.8 43.31-70.57 42.94-70.52 42.44-70.44 41.98-70.19 40.5-69.7 39.17-68.86 37.92-67.78 36.34-67.03 34.55-66.16 32.83-65.94 32.42-65.73 31.92-65.96 31.46-66.85 29.73-65.98 28.41-65.33 27.18-64.21 25.03-64.15 22.5-63.19 20.3-63.03 19.96-63.17 19.46-63.67 19.26-64.23 19.03-64.38 19.46-64.52 19.82-65.78 22.97-67.04 26.11-68.3 29.27-68.43 29.63-68.53 30.26-68.76 30.28-70.57 30.42-71.16 31.68-71.77 32.96-71.86 33.14-72.22 33.15-72.46 32.98-72.8 32.73-72.81 32.41-72.68 32.11-72.09 30.93-71.53 29.74-70.92 28.59-69.97 26.85-69.25 25.02-69.03 22.94-69.95 25.16-72.05 26.43-73.44 28.3-73.64 26.84-72.86 25.73-72.45 24.55-71.76 22.58-71.03 20.61-70.65 18.53-69.67 13.12-67.91 7.98-67.36 2.42-66.83-2.78-65.86-7.9-65.47-13.12-65.18-17.16-65.11-21.24-64.82-25.27-64.37-31.21-64.27-37.18-64.45-43.22-64.59-47.55-64.89-51.9-64.75-56.18-64.56-61.7-64.97-67.27-65.59-72.81-66.03-76.71-66.04-80.53-66.28-84.37-66.57-88.88-66.84-93.38-67.41-97.91-68.09-103.31-68.25-108.7-68.86-114.1-69.25-117.64-69.7-121.2-70.1-124.75-70.54-128.44-71.02-132.17-71.05-135.89-71.1-140.86-72.21-145.91-72.28-150.88-72.36-156.98-73.43-163.14-73.16-169.23-73.0-172.87-73.73-176.64-73.98-180.36-74.3-185.03-74.49-189.7-74.86-194.37-75.11-197.6-74.85-200.78-75.38-204.03-75.53-204.92-75.47-205.78-76.52-206.43-77.32-206.93-77.23-207.91-77.09-208.47-76.67-210.25-77.44-212.18-76.99-213.94-76.8-214.72-76.92-215.5-77.28-216.36-78.79-215.89-77.71-214.52-78.08-213.73-78.86-213.62-78.88-214.34-79.27-214.62-80.17-215.25-80.06-215.79-79.38-216.38-78.93-216.79-78.72-217.45-78.24-217.82-76.49-219.1-76.73-220.91-77.35-222.82-77.54-223.46-77.77-224.11-78.78-223.84-79.69-223.58-79.77-224.36-79.82-224.89-79.86-225.51-79.57-225.75-78.87-225.31-78.18-224.9-77.92-225.21-77.95-225.85-77.97-226.01-77.98-226.17-77.97-226.33-77.81-228.4-77.79-228.4-80.07-228.65-80.14-228.8-80.28-228.96-80.25-229.09-79.94-231.1-80.17-233.08-81.31-235.06-82.34-236.86-82.11-238.25-80.42-239.36-79.17-240.2-79.33-240.82-80.89-241.61-81.99-242.15-82.22-242.83-82.31-243.8-82.61-247.27-82.95-250.75-83.34-254.23-83.57-256.27-83.66-256.23-85.69-256.0-86.58-255.9-86.64-255.47-86.74-254.79-87.15-252.03-86.71-249.18-86.59-246.37-86.53-244.58-87.08-242.9-86.62-241.01-87.67-241.99-87.1-243.31-88.23-244.3-88.81-243.59-88.56-242.83-88.36-242.03-87.9-240.23-88.37-239.12-90.04-238.5-90.68-238.25-90.92-237.96-90.91-237.34-90.86-235.9-90.52-234.33-90.71-233.04-91.11-230.28-90.69-227.45-90.88-224.69-91.09-221.86-91.44-219.04-91.08-216.1-90.85-214.31-90.84-212.54-91.61-210.94-91.73-210.68-91.82-210.31-91.74-210.01-91.01-207.3-92.08-204.93-92.25-202.39-92.3-201.52-92.51-200.67-92.21-199.77-91.61-197.91-92.52-196.25-92.09-194.39-93.31-195.23-92.8-196.32-93.27-197.25-93.45-195.89-94.31-194.6-92.72-193.18-91.78-192.33-93.21-192.5-93.19-192.17-93.09-190.37-93.89-188.78-93.68-186.98-93.64-186.66-93.52-186.34-93.78-186.03-94.84-186.64-94.41-187.55-94.56-188.33-94.65-188.75-94.79-189.17-95.37-189.1-95.75-189.07-95.95-188.7-95.82-188.42-95.04-186.71-95.37-185.08-95.34-183.42-95.32-182.64-94.87-182.08-94.16-181.54-93.31-180.89-93.3-180.21-94.41-180.02-94.81-179.94-95.36-180.05-95.38-179.56-95.56-176.32-97.55-173.64-96.72-169.99-96.11-167.33-96.38-164.52-96.31-161.78-96.29-160.9-96.27-160.03-96.14-159.13-95.95-158.03-95.82-156.88-96.63-155.87M-250.82 .389C-250.53 .389-250.37 .584-250.38 .835-250.41 1.03-250.49 1.34-250.62 1.37-250.87 1.43-251.03 1.18-251.07 .927-251.1 .687-251.06 .481-250.82 .389M-209.9 87.42C-210.15 86.58-210.34 85.79-209.61 85.31-209.52 85.25-209.25 85.3-209.2 85.38-208.6 86.39-209.34 86.87-209.9 87.42M-236.07 82.43C-235.56 80.13-235.02 77.46-234.4 74.82-234.25 74.15-234.03 73.23-233.14 73.46-232.04 73.73-232.68 74.68-232.6 75.31-232.45 76.44-233.41 77.38-233.03 78.54-231.97 81.72-233.49 84.2-234.2 86.89-234.35 87.44-234.89 87.46-235.25 86.82-235.99 85.53-236.17 84.18-236.07 82.43M-267.92-110.01C-267.37-109.96-267.25-109.7-267.21-109.47-266.42-105.95-266.31-102.43-265.55-98.91-264.96-96.21-265.2-93.44-264.93-90.7-264.62-87.71-264.47-84.73-264.19-81.75-263.76-77.48-263.41-73.2-263.05-68.94-262.7-64.58-262.6-60.22-262.06-55.86-261.5-51.31-261.56-46.84-261.15-42.32-261.03-40.82-261.79-40.02-263.38-39.55-264.55-63.13-266.86-86.62-267.92-110.01M-241.03 102.1C-242.13 101.29-242.34 100.37-242.72 99.55-244.4 95.77-245.36 91.83-246.68 87.98-248.97 81.32-250.1 74.53-251.77 67.8-252.44 65.06-252.56 62.32-253.1 59.58-254.09 54.59-255.0 49.56-255.67 44.56-256.72 36.71-257.56 28.87-258.5 21.02-258.82 18.27-259.17 15.53-259.49 12.78-260.11 7.37-260.21 1.97-260.86-3.46-260.92-4.0-260.94-4.61-260.79-5.12-260.5-5.99-259.76-6.59-258.85-6.44-257.82-6.27-258.18-5.26-258.11-4.6-257.64 .251-257.19 5.09-256.75 9.95-256.61 11.39-256.52 12.84-256.36 14.28-255.78 19.69-255.18 25.11-254.57 30.52-254.12 34.56-253.81 38.6-253.11 42.63-252.36 46.91-251.94 51.19-251.15 55.45-250.58 58.52-250.36 61.58-249.55 64.64-248.92 67.03-248.37 69.46-248.03 71.87-247.5 75.41-247.0 78.96-245.69 82.41-244.94 84.41-244.98 86.61-243.54 88.45-243.4 88.63-243.39 88.93-243.38 89.17-243.36 92.04-242.25 94.68-240.85 97.29-239.95 98.96-239.98 100.55-241.03 102.1M-235.61 71.59C-235.71 72.66-235.89 74.47-236.1 76.28-236.15 76.66-236.33 77.03-236.5 77.36-236.63 77.63-236.86 77.91-237.22 77.75-237.43 77.67-237.64 77.44-237.74 77.23-237.88 76.94-237.96 76.6-238.0 76.28-238.67 71.76-239.88 67.29-240.7 62.78-241.52 58.35-242.24 53.91-242.85 49.49-244.16 40.22-245.03 30.95-246.28 21.69-246.53 19.82-246.26 17.98-246.71 16.18-247.51 12.93-247.28 9.74-247.64 6.52-248.15 1.77-248.49-2.98-249-7.74-249.19-9.43-248.75-10.64-247.52-11.63-245.82-13-244.01-14.14-241.97-15.08-238.04-16.88-234.6-19.46-231.04-21.86-229.55-22.86-227.93-23.72-226.63-24.99-226.33-25.28-225.94-25.35-225.53-25.18-225.06-24.97-225.04-24.54-225.05-24.14-225.06-23.57-225.04-22.99-225.12-22.45-225.74-18.8-225.95-15.05-226.4-11.36-226.86-7.61-226.89-3.79-227.61-.057-228.63 5.24-228.91 10.76-229.63 16.16-230.16 20.22-230.64 24.31-231.08 28.39-231.64 33.68-232.46 38.87-233.3 44.07-233.68 46.39-234.26 48.67-234.1 51.14-234.0 52.79-232.78 54.61-234.09 56.12-234.18 56.23-234.09 56.62-233.96 56.81-233.38 57.63-233.7 58.38-233.81 59.15-234.15 61.25-234.55 63.34-234.83 65.44-235.09 67.24-235.67 68.96-235.61 71.59M-206.48 77.44C-207.01 76.82-207.2 76.17-206.85 75.49-206.54 74.88-206.48 74.2-206.42 73.5-206.91 72.09-206.07 71.05-205.82 69.85-205.26 67.17-204.82 64.45-204.18 61.81-202.78 56.12-201.65 50.35-200.55 44.57-199.76 40.42-199.36 36.14-198.69 31.94-197.68 25.52-196.06 19.24-196.02 12.56-196.0 11.94-195.82 11.31-195.57 10.75-195.16 9.82-195.0 8.82-194.92 7.79-194.76 6.05-194.59 4.31-194.32 2.61-193.52-2.67-193.02-8.01-192.54-13.37-192.33-15.64-192.46-18.05-191.92-20.2-191.01-23.8-191.28-27.62-190.81-31.3-190.57-33.22-190.57-35.23-190.33-37.19-189.91-40.64-190.02-44.21-189.14-47.54-189.07-47.82-189.15-48.19-189.21-48.51-189.5-50.48-189.3-52.38-188.83-54.2-188.46-55.65-188.29-57.08-188.43-58.65-188.53-59.88-188.38-61.18-187.62-62.46-187.16-60.88-187.01-59.58-187.19-58.24-187.47-56.05-187.8-53.88-187.94-51.66-188.12-48.72-188.13-45.74-188.52-42.83-188.7-41.43-188.5-39.9-188.46-38.44-188.3-38.42-188.14-38.39-187.98-38.38-188.37-40.52-187.39-42.34-187.57-44.49-187.82-47.56-186.98-50.45-186.64-53.43-186.24-57.13-186.09-60.87-185.89-64.61-185.82-65.81-185.61-66.91-184.82-67.8-184.0-67.46-184.38-66.68-183.98-66.3-183.47-65.85-182.89-65.49-183.03-64.69-183.38-62.77-183.19-60.71-183.43-58.8-183.92-54.94-184.05-51.03-184.29-47.15-185.06-34.83-186.12-22.58-187.28-10.35-188.02-2.61-189.12 5.02-190.12 12.69-190.78 17.71-192.08 22.52-192.87 27.49-193.2 29.58-193.46 31.71-193.84 33.79-194.61 38.04-195.2 42.34-196.25 46.51-197.38 50.97-197.61 55.71-198.95 60.1-199.04 60.4-199.19 60.73-199.13 61.03-198.49 64.04-199.82 66.57-200.72 68.98-201.88 72.03-202.18 75.31-203.02 78.42-203.82 81.36-204.78 84.29-205.42 87.31-205.74 88.84-205.81 90.43-206.48 91.86-207.15 93.31-207.59 94.9-208.17 96.41-209.54 99.99-211.59 103.11-214.37 105.72-213.21 104.2-212.79 102.31-211.96 100.64-209.25 95.21-207.51 89.32-205.91 83.4-204.58 78.38-204.0 73.09-202.71 68.01-201.62 63.74-201.4 59.15-200.27 54.87-199.64 52.53-200.03 49.92-199.11 47.71-198.03 45.1-198.24 42.11-197.41 39.45-197.21 38.79-197.41 38.11-197.77 37.18-198.0 37.88-198.17 38.3-198.29 38.75-199.72 43.68-199.99 48.97-201.07 54.0-201.83 57.53-202.32 61.12-203.65 64.43-203.82 64.84-203.84 65.34-203.88 65.81-204.08 68.03-204.59 70.16-205.27 72.22-205.47 72.8-205.65 73.43-206.41 73.51-206.16 74.86-206.35 76.14-206.5 77.44-206.96 78.74-206.7 80.42-208.09 81.41-208.63 79.09-208.22 78.16-206.48 77.44M-303.93-123.57C-304.38-121.54-303.35-119.56-303.01-117.57-302.18-112.56-301.62-107.56-301.37-102.55-301.09-97.24-300.69-91.9-300.0-86.58-299.1-79.64-298.79-72.71-297.98-65.78-297.25-59.56-296.46-53.33-296.38-47.12-296.32-42.47-295.72-37.79-294.92-33.11-294.6-31.24-294.48-29.39-294.35-27.53-294.23-25.6-294.21-23.68-293.85-21.72-293.5-19.83-294.04-18.48-295.87-17.54-303.92-13.42-312.5-10.45-321.11-7.5-327.01-5.48-333.12-3.97-339.16-2.29-343.56-1.06-348.13-.298-352.6 .778-355.84 1.54-358.96 2.68-362.3 3.21-365.39 3.7-368.48 4.15-371.56 4.67-373.04 4.92-374.45 5.3-375.91 5.61-380.99 6.71-386.01 8.02-391.17 8.81-394.1 9.26-396.96 9.93-399.96 10.17-402.07 10.35-404.09 10.93-406.18 11.21-409.66 11.7-412.96 12.71-416.52 12.99-418.85 13.17-421.12 13.8-423.52 13.77-423.75 13.77-423.99 13.84-424.2 13.93-424.68 14.14-425.31 14.3-425.11 15.05-424.96 15.61-424.42 15.75-423.93 15.85-420.86 16.47-417.81 16.56-414.78 16.54-411.69 16.51-408.67 15.94-405.5 16.33-404.21 16.48-403.12 15.73-401.83 15.69-397.22 15.56-392.58 15.63-388.06 14.92-385.37 14.51-382.47 15.11-379.65 15.39-376.62 15.69-373.6 15.83-371.07 14.14-370.42 13.72-369.66 14.13-368.96 14.02-367.03 13.71-365.11 13.64-363.04 14.13-361.39 14.52-359.74 13.97-358.11 13.71-355.18 13.23-352.25 12.81-349.18 12.91-345.24 13.02-341.51 12.1-337.68 11.67-336.97 11.59-336.28 11.55-335.55 11.56-333.89 11.57-332.23 11.54-330.64 11.07-327.89 10.25-324.89 10.32-322.08 9.75-315.52 8.43-308.74 7.96-302.24 6.35-299.51 5.69-296.76 4.85-293.82 4.73-291.75 4.63-291.4 4.67-291.24 6.84-291.04 9.43-290.83 12.0-290.48 14.59-290.04 17.99-289.83 21.38-289.34 24.76-288.72 29.04-288.34 33.31-287.81 37.59-287.2 42.35-286.97 47.18-285.5 51.85-284.09 56.41-283.85 61.02-282.62 65.55-281.45 69.84-280.97 74.22-279.21 78.44-278.55 80.05-278.25 81.8-277.91 83.47-277.24 86.73-275.79 89.77-274.74 92.92-274.68 93.08-274.62 93.25-274.52 93.38-271.43 96.86-270.25 101.3-267.53 105.08-264.65 109.05-260.84 110.56-256.99 112.36-254.96 113.3-252.71 113.45-250.85 115.05-249.64 116.11-248.13 116.23-246.68 116.17-245.46 116.13-244.28 116.48-243.07 116.76-239.15 117.65-235.22 118.07-231.32 117.81-230.75 117.78-230.22 117.59-229.87 117.18-229.39 116.59-228.82 116.37-228.0 116.7-227.73 116.8-227.28 116.83-227.09 116.68-225.11 115.06-222.5 116.21-220.21 115.97-218.65 115.8-217.08 115.86-215.63 115.24-213.28 114.25-211.03 113.23-209.36 111.25-208.4 110.11-207.13 109.27-206.19 108.04-204.77 106.15-203.64 104.1-202.57 101.98-200.23 97.33-198.64 92.3-196.97 87.33-196.53 86.03-196.27 84.61-196.74 83.08-197.18 81.58-196.63 80.24-196.36 78.87-196.26 78.34-195.81 77.98-196.03 77.3-197.16 73.77-195.08 71.22-194.19 68.33-193.94 67.52-192.53 67.64-192.4 66.35-192.26 64.94-192.13 63.66-192.39 62.14-192.9 59.08-193.52 55.81-190.97 53.53-190.74 53.33-190.71 53.02-190.73 52.67-191.06 48.12-190.17 43.87-189.2 39.62-188.82 37.95-188.69 36.2-188.04 34.6-187.9 34.27-187.87 33.83-187.95 33.44-188.75 29.64-187.56 26.35-186.58 23.0-186.44 22.54-186.19 22.17-185.81 21.9-185.15 21.42-185.12 20.74-185.37 19.98-186.24 17.3-185.64 14.96-184.91 12.53-184.07 9.74-183.68 6.75-183.15 3.83-182.38-.423-182.32-4.84-182.04-9.21-181.91-11.41-181.36-13.54-180.97-15.69-180.44-18.69-179.88-21.67-179.37-24.68-179.29-25.22-179.33-25.8-179.4-26.37-179.62-28.08-179.51-29.74-179.05-31.32-178.72-32.41-178.59-33.69-179.19-34.62-180.2-36.13-179.71-37.44-179.69-38.82-179.66-39.55-179.64-40.53-178.37-40.2-177.98-40.1-177.64-40.45-177.78-40.69-178.31-41.66-177.99-42.35-177.56-43.09-177.4-43.36-177.49-43.76-177.84-43.92-179-44.46-178.63-45.35-178.49-46.03-177.72-49.55-178.04-53.29-177.56-56.87-177.41-57.97-177.39-59.06-176.73-59.98-176.01-60.98-175.81-62.07-176.81-63.28-177.12-63.65-177.13-63.96-176.72-64.25-175.59-65.08-175.14-66.62-175.85-68.01-177.63-71.49-176.96-74.63-175.89-77.74-175.5-78.86-175.29-79.98-175.36-81.2-175.43-82.42-175.45-83.63-174.81-84.66-174.43-85.27-174.53-86.03-174.6-86.77-174.69-87.54-174.65-88.23-173.9-88.56-172.97-88.96-172.89-89.84-172.87-90.74-172.74-94.68-171.5-98.3-170.76-102.05-170.52-103.27-170.55-104.55-170.07-105.72-169.66-106.73-170.19-107.83-171.3-108.45-173.62-109.73-175.99-110.7-178.55-110.19-180.45-109.8-182.49-110.03-184.38-109.54-185.36-109.27-186.37-110.24-187.0-110.73-188.88-112.19-190.89-111.78-192.81-112.34-194.38-112.81-196.1-112.02-197.66-113.33-197.8-113.44-198.15-113.39-198.34-113.3-200.51-112.34-202.85-112.92-205.18-113.36-207.79-113.84-210.24-113.45-212.56-112.68-213.69-112.32-214.76-112.04-216.01-112.16-218.21-112.35-219.88-111.57-220.71-109.58-221.74-107.18-222.71-104.82-221.93-101.84-220.94-98.11-221.79-94.66-222.92-91.34-225.08-85.03-228.65-79.58-232.07-74.02-234.31-70.39-236.92-67.06-239.41-63.66-241.15-61.3-242.94-58.92-245.05-56.85-246.61-55.33-247.97-53.6-249.41-51.95-249.62-51.73-249.72-51.4-249.94-51.21-250.37-50.81-250.83-50.25-251.53-50.59-252.16-50.9-252.0-51.56-252.06-52.12-252.58-57.46-252.69-62.76-253.03-68.07-253.45-74.74-253.71-81.42-254.5-88.09-255.06-92.84-254.95-97.56-255.71-102.29-256.16-105.12-256.5-107.94-256.9-110.76-257.02-111.67-257.12-112.59-256.88-113.39-256.23-115.48-256.74-117.69-256.83-119.84-256.9-121.66-257.62-122.5-259.47-123.01-261.7-123.62-263.92-124.24-266.07-125.18-267.09-125.62-268.04-125.63-268.84-125.14-270.09-124.38-271.17-124.87-272.11-125.88-275.5-129.51-279.65-129.88-283.87-130.12-287.91-130.35-291.79-129.71-295.7-129.35-297.89-129.15-299.97-128.49-302.12-128.1-303.11-127.93-303.58-127.44-303.62-126.41-303.67-125.44-303.83-124.51-303.93-123.57" fill="#0F1115"></path></svg>