<?xml version="1.0" encoding="UTF-8"?>
<svg id="Layer_1" xmlns="http://www.w3.org/2000/svg" version="1.1" viewBox="0 0 569.29 441.55">
  
  <path d="M431.311,179.29c.16,1.92,3.03,11.46,3.36,13.06.34,1.61,2.27,3.35,2.49,3.67.23.32,4.51,11.34,4.52,9.38.01-1.95-4.27-10.28-5.36-11.04-1.07-.75-1.93-8.07-2.84-8.54-.89-.46-1.05-5.36-1.769-6.519-.71-1.151-1.511-8.341-1.511-8.341-1.31.31.95,6.41,1.11,8.33M428.981,164.47c-.47.57.32,2.83.19,3.91-.11,1.09.74.98,1.06-.44.336-1.41.302-5.87-.26-5.11-.56.77-.44.95-.99,1.64M426.431,120.67s-.29,1.88-.21,3.51c.09,1.62.78,3.08.18,3.42-.59.34.29,2.31.18,3.59-.1,1.28-.01,5.66.13,7.02.14,1.37.57,6.07.33,6.68-.24.6-.14.52.12,2.22.25,1.72,1.56,12.06,1.29,12.67-.27.59,2.07,3.88,1.22-.68-.83-4.55-.94-7.11-1.11-9.43-.18-2.31-.53-9.66-.88-10.26-.35-.6-.79-9.67-.51-10.01.26-.35-.08-2.66-.21-3.86-.11-1.19-.06-5.05-.53-4.87M242.74,213.04c.28-5.2-.44-9.88-1.12-14.67-1.15,2.21-.7,8.21,1.12,14.67M233.99,146.21c-.07,2.99.16,5.9,1.39,8.53.26.54.24,1.23.33,1.86.27,2.44.38,4.92.83,7.3.48,2.62.58,5.33,1.52,7.83.8,2.11.41,4.57.8,6.827.6,3.453.87,6.983.99,10.563.08,2.49.65,4.91,1.06,7.78.79-1.27.71-2.09.57-2.92-.34-2.09-1-4.15-.96-6.28.11-4.54-.99-8.788-1.27-13.23-.05-1.1-.03-2.21-.26-3.3-.65-3.06-1.05-6.18-1.59-9.27-1.06-6.07-1.73-12.26-3.51-18.06.03.79.12,1.57.1,2.37M338.241,431.06c-.01.07-.02.15.01.2.08.11.15.04.14-.17-.01-.13-.05-.26-.08-.42-.04.15-.06.26-.07.39M356.101,159.2c-.16-.03-.24.12-.19.29.01.06.06.14.11.16.15.06.26-.01.3-.19-.07-.09-.12-.25-.22-.26M361.321,267.19c.01.12.13.31.24.33.24.07.45-.09.49-.34.05-.27-.11-.4-.35-.46-.32.01-.39.24-.38.47M358.291,314.85c-.14.57-.95,1.05-.47,1.72.79-.5.19-1.16.47-1.71v-.01ZM360.021,291.37c.01-.23-.06-.46-.33-.41-.1.01-.23.21-.24.33-.03.24.09.41.35.43.08-.12.2-.24.22-.35M362.991,296.8c.04-.23.12-.45.1-.67,0-.12-.16-.29-.25-.28-.28.05-.34.28-.29.78.02.01.23.09.44.17M362.971,299.21c.01-.2-.13-.39-.19-.58-.14.18-.31.34-.41.53-.11.24-.03.44.16.53.37,0,.43-.28.44-.48M357.241,324.14c-.04-.23.17-.76-.19-.6-.25.11-.1.72.09,1.07.04-.17.12-.33.1-.47M360.451,280.03c-.47.05-.36.44-.39.72-.02.2.03.55.29.43.32-.12.3-.51.33-.82-.08-.12-.15-.34-.23-.33M359.181,297.79c.13-.75.37-1.49-.02-2.69-.38,1.26-.21,1.98.02,2.69M358.851,173.59c.15.24.4.52.65.54.29.02.23-.33.21-.54-.02-.33-.13-.59-.54-.55-.26.12-.44.36-.32.55M363.591,271.23c-.22,1.04,1.15.84,1.15,1.68q-.01-1.25-1.15-1.68M329.251,347.17c0-1.07,0-2.13-.02-3.2-.64,1.14-.74,2.21.02,3.2M359.721,285.97c.1.39.41.67.86.55.33-.11.45-.47.44-.82-.01-.44-.2-.71-.74-.65-.4.17-.66.48-.56.92M360.741,274.68c.02.19.21.43.38.46.38.08.53-.27.64-.58.25-.79.09-1.39-1.03-1.7,0,.75-.04,1.3.01,1.82M363.171,231.24c.13.21.44.23.62.05.69-.7.29-1.48.37-2.23.01-.06-.07-.13-.25-.39-.6.97-1.24,1.68-.74,2.57M358.291,314.86c.07-2.82.15-5.65.22-8.79-.63.62-.82.99-.78,1.39.16,1.75.18,3.48-.25,5.28-.19.77-.42,1.89.81,2.11v.01ZM426.891,112.01c-.94,2.31-.88,4.55-.19,6.72,1.28-2.35.57-4.52.19-6.72M356.481,346.81c-.37-5.97.33-12.04.08-18.01-.25,6.03-.5,12.06-.75,18.1.22-.03.44-.07.67-.09M366.651,248.82c.35-.95.28-1.78-.24-2.48-.63-.85-1.03-1.48.12-2.6.9-.9.67-3.88-.07-4.76-.21-.24-.53-.33-.85-.17-.19.09-.48.34-.48.5-.03.92-.51,1.97.45,2.6.39.25.7.46.29,1.11-1.45,2.31-.56,4.66-1.25,7.36,1.04-.57,1.72-.69,2.03-1.56M540.951,171.54c-.42.45-.75,1.49-1.42.98-.67-.52.24-1.1.62-1.62.4-.55.79-1.11,1.22-1.63.35-.42.64-.83.64-1.34,0-.69.39-1.58-.43-1.91-.68-.27-1.27.28-1.73.79-1.06,1.15-2.27,2.16-3.65,2.75-1.36.59-2.52,1.42-3.55,2.44-3.23,3.18-5.8,6.924-8.53,10.52-2.51,3.3-4.88,6.73-7.25,10.15-1.83,2.64-3.9,5.11-5.53,7.89-2.86,4.83-6.15,9.42-9.03,14.25-1.93,3.23-4.38,6.24-6.8,9.22-3.38,4.17-7.14,7.68-11.66,10.36-5.27,3.13-10.53,3.58-15.76,1.63-2.53-.94-4.78-2.34-7.2-3.46-2.32-1.09-4.37-2.55-6.22-4.17-2.61-2.26-4.87-4.96-7.12-7.62-2.69-3.17-4.86-6.74-6.98-10.38-2.69-4.64-4.83-9.58-6.93-14.54-1.04-2.47-1.701-5.16-2.639-7.69-1.741-4.66-2.801-9.58-3.751-14.51-1.42-7.34-2.39-14.82-3.02-22.37-.39-4.69-.5-9.43-.67-14.15-.18-5.27-.19-10.58-.11-15.9.04-2.98-.13-5.93-.04-8.93.1-2.99.35-6,.37-8.98.02-2-.33-4,.21-6.03.36-1.4.41-2.77.39-4.14-.04-2.49.27-5,.44-7.5.19-2.67.61-5.33.99-8,.67-4.73,1.71-9.4,3.07-14.03.59-1.99,1.446-3.93,2.098-5.91,2.112-6.29,4.862-12.33,8.922-17.81,1.17-1.56,2.35-3.33,3.89-4.36,2.23-1.47,4.14-3.38,6.73-4.42,2.58-1.03,4.61-1.19,6.88-.16,2.23,1.01,4.23,2.33,6.38,3.47,1.06.55,1.83,1.38,2.43,2.33,2.17,3.42,3.37,7.16,2.92,11.63-.35,3.52,2.96,6.26,6.31,5.58,1.76-.35,3.78-.23,5.23-1.15,2.09-1.33,3.33.48,5.03.05.08-.01.16.01.24,0,3.34-.4,6.7-.82,10.05-1.22.73-.08,1.44-.26,2.12-.67.44-.25.9-.52,1.38-.4,1.79.45,3.5-.64,5.25-.9,1.64-.24,3.68-2.62,3.62-4.14-.06-1.35.53-2.18,1.52-2.94.82-.65,1.01-1.43.97-2.42-.1-3.41-1.94-5.9-3.81-8.21-1.63-2.03-3.25-4.14-5.29-5.83-.94-.77-1.7-1.75-2.9-2.08-1.98-.57-3.04-2.51-5.1-2.92-.19-.04-.31-.32-.43-.53-1.29-2.17-3.5-3.01-5.88-3.56-.69-.16-1.35-.29-2-.57-3.5-1.44-7.28-2.14-11.16-2.31-3.01-.13-6.08-.08-9.07-.16-4.01-.11-7.84,1.68-11.77,1.73-.15.01-.32.09-.46.18-1.32.88-2.81,1.07-4.23,1.39-7.82,1.74-15,5.18-21.62,10.16-7.73,5.81-14.09,12.91-19.27,21.09-1.37,2.15-2.95,4.22-4.1,6.48-2.81,5.5-5.26,11.13-7.39,16.89-1.53,4.16-2.97,8.35-4.31,12.56-1.84,5.82-3.35,11.67-4.35,17.61-1.13,6.8-2.64,13.57-3.36,20.4-.45,4.29-.82,8.58-1.16,12.86-.3,3.82-.19,7.6-.37,11.41-.33,7.56.53,14.91,1.4,22.24.49,4.1,1.12,8.17,1.86,12.2.71,3.86,1.52,7.7,2.88,11.33.97,2.6,1.93,5.2,2.77,7.86,1.55,4.99,3.59,9.74,6.31,14.05,2.14,3.38,4.7,6.48,7.29,9.54,2.17,2.55,4.57,4.82,7.06,7.04,1.71,1.51,3.89,2.39,5.32,4.14,1.94,2.38,4.89,3.23,7.44,4.64.93.52,1.64,1.31,2.67,1.7,3.216,1.21,6.37,2.56,9.6,3.78,1.29.49,2.66.82,4.03,1.11,2.57.56,5.19,1.01,7.78,1.54,2.14.42,4.22,1.16,6.41,1.28,4.66.26,9.15,1.33,13.94.93,1.34-.12,2.74-.27,4.06-.12,3.43.37,6.93-.58,10.33-1.12,4.76-.78,9.62-1.89,14.24-3.9,2.89-1.27,5.89-2.31,8.48-4.36,2.47-1.93,5.17-3.52,7.71-5.39,1.5-1.11,2.55-2.07,3.01-3.76.16-.59.55-1.04,1.09-1.37,2.48-1.53,4.44-3.61,6.28-5.88,1.41-1.72,2.6-3.62,4.03-5.27,3.99-4.66,7.66-9.63,12.22-13.82,1.56-1.43,3.34-2.89,4.1-4.85.73-1.89,1.73-3.38,3.18-4.81.99-.96,1.89-2.18,1.75-3.74-.07-.71.3-1.45.96-1.96,1.48-1.15,2.28-3.05,4.12-3.79.4-.16.55-.61.71-1.02.53-1.31,1.35-2.58.88-4.01-.15-.47.02-.912.42-1.346,1.66-1.834,2.75-4.114,4.59-5.814.31-.29.58-.64.82-1,.27-.4.73-.86.28-1.29-.39-.35-.9-.04-1.35.22-1.3.79-2.5,1.76-3.65,2.79-.45.4-.87.84-1.33,1.23-.32.27-.73.5-1.11.29-.39-.21-.29-.68-.26-1.08.07-.79.57-1.37,1.08-1.97.49-.59.88-1.26,1.28-1.91.39-.62,1.28-1.02,1.25-2.04-2.04,1.08-3.07,3.06-4.85,4.07-1.73,1-2.21,3.69-4.68,3.81.05-1.11,1.32-1.72,1.08-2.78-1.6-.09-1.61,2.05-3.17,2.44.4-1.19,1.24-1.83,1.81-2.63.55-.77.89-1.65.25-2.22-1.03-.91-.61-1.73.09-2.7.22-.3.59-.67.22-1.04-.58-.18-.97.17-1.27.6-1.29,1.83-2.93,3.33-4.53,4.87-1.18,1.11-2.35,2.16-3.09,3.69-.45.94-1.39,1.731-2.18,2.498-.36.343-.87.902-1.75.068,3.34-3.326,5.56-7.376,8.09-11.846-1.94,1-2.73,2.49-3.82,3.65M330.331,326.63c-.27.18-.31.41-.21.63.06.18.24.19.41.06.23-.17.37-.39.2-.6-.07-.09-.27-.07-.4-.09M354.751,367.65c-.38.85-.36,1.48-.32,2.48.56-1.01.45-1.64.32-2.48M358.401,144.42q.02-1.85-1.71-2.48c.24,1.08.76,1.82,1.71,2.48M352.851,136.01c-.84-1.06-1.34-1.74-1.9-2.37-.34-.38-.72-1.04-1.38-.4-.47.45.01.88.38,1.17.73.57,1.36,1.27,2.9,1.6M353.531,142.7c.63,1.96,1.29,3.9,2.61,5.46.24.28.48.71.97.46.59-.32.57-.96.32-1.27-1.27-1.55-2.05-3.5-3.9-4.65M348.001,50.82c.02,3.5-.77,6.49-1.33,9.49-.96,5.08-2.01,10.13-3.52,15.15-.28.93-1.27,2.46.13,2.64,1.01.12,1.07-1.56,1.25-2.45.98-4.66,2.43-9.27,3.31-13.95.6-3.13.69-6.23,1.05-9.34.05-.39.07-.81-.89-1.54M334.681,335.16c-1.17,2.14.3,4.2-1.21,6.31-.19-.62-.55-1.14-.46-1.64.55-2.87-.24-5.56.08-8.41.36-3.15-.08-6.24.53-9.42.08-.42-.03-.82-.35-1.07-.21-.19-.55-.42-.82-.38-.48.08-.75.53-.71.95.09,1.33.01,2.75.42,3.96.36,1.05.47,1.93-.18,2.99-.63,1-.66,2.04-.61,3.1.04.68.2,1.4-.57,2.02-.68-.4-.17-1-.2-1.51-.07-1.18.61-2.61-.97-3.31-.6-.27-.52-3.09.1-3.37,1.97-.92,1.28-2.5,1.53-3.69.43-2.07.01-4.15.32-6.27.11-.71-.24-1.23-.87-1.52-1.18-.51-1.41-1.51-1.43-2.7-.05-2.07-.4-4.06.33-6.24.54-1.63.17-3.21-.62-4.61-.83-1.44-.96-3.02-.76-4.79.48-4.36.75-8.71,1.1-13.06.02-.33.07-.7-.05-.96-1.1-2.36-.61-5.12-.21-7.58.69-4.14.33-8.17.95-12.24.26-1.62-.42-3.26.67-4.89.16-.25.19-.71.05-.94-1.3-2.24-.33-4.86-.2-7.3.12-2.33.16-4.64.18-6.97.06-4.47-.56-8.88.09-13.4.51-3.51-.11-6.82-.02-10.24.09-3.39.3-6.8-.17-10.09-.37-2.59-.31-5.26-.55-7.85-.47-4.88-.95-9.76-1.8-14.57-.54-3.1-1.14-6.18-1.81-9.24-1.11-5.08-3.21-9.7-5.36-14.32-2.26-4.87-5.66-8.81-9.8-12.16-2.5-2.02-5.51-3.33-9.28-2.98-1.86.16-3.74.16-5.59.12-3.64-.07-7.24-.07-10.96.93-1.52.41-3.12-.14-4.79.31-5.57,1.48-11.11,1.27-16.65,1.67-.5.04-1.02-.06-1.49-.17-1.67-.39-3.33-.71-5.14-.76-3.28-.09-5.15-2.21-5.66-4.88-.52-2.68,1.72-3.96,4.69-6.17.94-.69,1.8-1.23,2.93-1.62,2.08-.72,3.74-2.35,5.63-3.54,2.47-1.56,4.97-3.09,7.51-4.53,2.26-1.29,2.69-4.35,4.63-6.07,6.18-5.45,11.5-11.53,16.27-18.06.87-1.2,1.98-2.24,2.88-3.44,4.47-5.99,7.19-12.47,9.3-19.26,1.52-4.93,2.22-9.82,2.84-14.75.35-2.86.3-5.64.09-8.43-.3-3.94-.45-7.9-.33-11.89.05-2.5,1.83-4.41,5.03-4.41,1.68,0,2.36-1.74,3.68-3.23.16-.18,1.51-2.68,1.75-2.72,4.68-1.05,11.53-11.66,16.23-12.36,2.18-.32,3.55,2.07,5.75,1.94.88-.04,2.17-5.04,3.01-5.44,1.91-.91,3.8-2.51,4.67-.78,1.37,2.73.99-6.68,3.41-5.23.89-.78.52-5.77.6-6.55.06-.49.04-1.01.65-1.27.43-.18.87-.04,1.12.28.68.82,1.99,5.54,3.27,5.38,1.02-.12,1.42,4.24,1.92,5.02,1.76,2.7-1.4,32.74-1.69,36.17-.38,4.64-2.24,9.17-2.83,13.79-.13,1.1-.57,2.23-1.08,3.34-.91,1.93-1.66,3.9-1.94,5.97-.39,2.93-1.64,5.75-2.69,8.6-1.15,3.08-2.25,6.18-3.51,9.24-2.29,5.58-5.29,10.9-8.95,15.96-2.95,4.1-5.86,8.22-8.86,12.44.91.54,1.93.73,2.89.51,4.34-.99,8.48-.33,12.69-.33.5,0,.99,0,1.46.19,3.38,1.32,6.66,2.78,9.82,4.45.42.22,1.02.48.79,1.02-.67,1.48.39,2.01,1.21,2.68,1.7,1.41,2.81,3.25,3.93,5.09.23.37.28.87.36,1.33.25,1.48.74,2.81,1.58,4.06,1.08,1.58,1.83,3.37,2.7,5.09.22.41.43.91.2,1.37-.89,1.73-.02,3.05.63,4.28,1.12,2.15,1.18,4.68,2.14,6.88.16.34.02.84-.48,1.04-.56.23-.71-.2-.85-.56-1.26-3.15-2.52-6.29-3.78-9.45-.13-.36-.23-.99-.46-1.01-1.81-.14-2.4-1.4-3.01-2.68-.09-.18-.45-.19-.69-.02-.34.25-.35.57-.22.87.59,1.18,1.15,2.37,1.76,3.52.95,1.74,1.67,3.57,1.89,5.65-.92-2.22-3.02-3.49-4.41-5.36-.2,1.46.58,2.57.99,3.75.69,1.97,1.42,3.94,1.8,6.02.98,5.41,2.74,10.55,3.29,16.11.53,5.2,1.5,10.32,1.89,15.54.29,4.04.36,8.12.65,12.15.45,5.94.55,11.91.37,17.95-.14,4.33-.44,8.68-.3,12.96.19,5.52-.22,11.09-.84,16.63-.44,3.9-.45,7.72-.69,11.56-.29,4.51-.56,9.01-1.13,13.54-.68,5.4-.84,10.79-1.45,16.19-.39,3.54-.84,7.1-1.24,10.65-.44,3.69-.92,7.42-.95,11.14-.05,4.97-1.16,10.02-1.23,14.99-.08,6.1-1.15,12.26-.88,18.35.16,3.64-.57,7.41-.82,11.13-.32,4.67-.51,9.34-.88,14.01-.25,3.23.01,6.41-.52,9.66-.15.89-.09,1.75-1.14,2.4-.8.5-.71,1.48-.57,2.04.42,1.78-.35,3.71.1,5.47.19.78.07,1.56-.29,2.42-1.51-.47-.43-1.84-.8-2.63-.78-.11-.8.61-1.19.89-.9.63-.79,1.17-.11,1.76.45.41.66,1.07,1.14,1.44,1.75,1.28,1.51,3.09.89,5-.19.64-.42,1.29-1.43,1.02-.91-.26-.99.52-1.04,1.05-.04.62.25.86.95.42.69-.41.95-.1.92.54-.02.16-.03.32-.02.48.16,2.07.18,2.07-2.1,2.32-.07.15-.21.31-.18.44.31,2.01.08,3.99-1.06,5.97-1.03,1.8-.8,3.19.89,4.3,1.25.84,1.09,1.46-.47,2.25-1.1.54-1.33,1.22-1.42,2.19-.3,3.47-.64,6.95-1.03,10.43-.23,2.04-.32,2-2.35,1.77-.89-.1-.95-.53-1.05-1.21-.41-2.76.03-5.61.15-8.42.06-1.79-.49-3.47-.03-5.36-1.05.98-.48,2.3-1.61,3.29-.58-.71-.33-1.47-.13-2.27.46-1.8-.01-2.91-1.68-3.53-.64-.25-.88-.54-.87-1.16.05-1.44.39-3.01.2-4.3-.4-2.76.02-5.59-.17-8.35-.21-2.83-.56-5.65-.2-8.59.23-1.79.24-3.56-.53-5.16-.12-.26-.21-.63-.13-.93.73-2.71-.34-5.08-.51-7.62-.05-.87-.26-1.72.04-2.62.6-1.86-.31-3.52.12-5.38-1.22.84-.71,1.93-1.18,2.86-.18-1.36-1.04-2.65.55-4.07.94-.85-.49-.68-.47-1.01.1-1.8-.7-3.39-.49-5.19.04-.32.16-.64-.1-.95-1.06.61-.63,1.52-.78,2.3-.09.42-.23.84-.81.77-.38-.03-.58-.4-.45-.68.78-1.71.45-3.34.48-5,.02-.78.47-1.34,1.18-1.88.85-.65.86-1.33-.25-1.52-.4-.08-.95.03-.97-.46-.18-3.24-2.17-5.92-1.34-9.57.61-2.66.34-5.47.41-8.21.02-.88.04-1.75.17-2.65.19-1.1.32-2.25-.49-3.26M180.49,178.901c.29,0,.45-.195.44-.446-.03-.195-.11-.505-.24-.535-.25-.06-.41.19-.45.443-.03.24.01.446.25.538M221.411,91.87c-.25.84-.44,1.63.29,2.11.09.06.36.01.41-.07.6-1.01-.14-1.49-.7-2.04M195.24,96.86c.51,2.3,1.05,4.97,1.67,7.61.15.67.37,1.59,1.26,1.36,1.1-.27.46-1.22.54-1.85.15-1.13-.81-2.07-.43-3.23,1.06-3.18-.46-5.66-1.17-8.35-.15-.55-.69-.57-1.05.07-.74,1.29-.92,2.64-.82,4.39M163.39,289.3c.55-.05.67-.31.71-.54.79-3.52.9-7.04,1.66-10.56.59-2.7.35-5.47.62-8.21.31-2.99.46-5.97.74-8.95.43-4.27.78-8.55,1.14-12.81.35-4.36.45-8.72.99-13.08.56-4.55.5-9.02.91-13.54.12-1.5-.64-2.3-2.23-2.77-1.17,23.58-3.48,47.07-4.54,70.46M190.281,77.19c-1.1.81-1.31,1.73-1.69,2.55-1.68,3.78-2.64,7.72-3.96,11.57-2.29,6.66-3.42,13.45-5.09,20.18-.67,2.74-.79,5.48-1.33,8.22-.99,4.99-1.9,10.02-2.57,15.02-1.05,7.85-1.89,15.69-2.83,23.54-.32,2.75-.67,5.49-.99,8.24-.62,5.41-.72,10.81-1.37,16.24-.06.54-.08,1.15.07,1.66.29.87,1.03,1.47,1.94,1.32,1.03-.17.67-1.18.74-1.84.47-4.851.92-9.69,1.36-14.55.14-1.44.23-2.89.39-4.33.58-5.41,1.18-10.83,1.79-16.24.45-4.04.76-8.08,1.46-12.11.75-4.28,1.17-8.56,1.96-12.82.57-3.07.79-6.13,1.6-9.19.63-2.39,1.18-4.82,1.52-7.23.53-3.54,1.03-7.09,2.34-10.54.75-2,.71-4.2,2.15-6.04.14-.18.15-.48.16-.72.02-2.87,1.13-5.51,2.53-8.12.9-1.67.87-3.26-.18-4.81M195.701,107.7c-.1-1.07-.28-2.88-.49-4.69-.05-.38-.23-.75-.4-1.08-.13-.27-.36-.55-.72-.39-.21.08-.42.31-.52.52-.14.29-.22.63-.26.95-.67,4.52-1.88,8.99-2.7,13.5-.82,4.43-1.54,8.87-2.15,13.29-1.31,9.27-2.18,18.54-3.43,27.8-.25,1.87.02,3.71-.43,5.51-.8,3.25-.57,6.44-.93,9.66-.51,4.75-.85,9.5-1.36,14.26-.19,1.69.25,2.9,1.48,3.89,1.7,1.37,3.51,2.51,5.55,3.45,3.93,1.8,7.37,4.38,10.93,6.78,1.49,1,3.11,1.86,4.41,3.13.3.29.69.36,1.1.19.47-.21.49-.64.48-1.04-.01-.57.01-1.15-.07-1.69-.62-3.65-.83-7.4-1.28-11.09-.46-3.75-.49-7.57-1.21-11.303-1.02-5.297-1.3-10.817-2.02-16.217-.53-4.06-1.01-8.15-1.45-12.23-.56-5.29-1.38-10.48-2.22-15.68-.38-2.32-.96-4.6-.8-7.07.1-1.65,1.32-3.47.01-4.98-.09-.11,0-.5.13-.69.58-.82.26-1.57.15-2.34-.34-2.1-.74-4.19-1.02-6.29-.26-1.8-.84-3.52-.78-6.15M224.831,101.85c-.53.62-.72,1.27-.37,1.95.31.61.37,1.29.43,1.99-.49,1.41.35,2.45.6,3.65.56,2.68,1,5.4,1.64,8.04,1.4,5.69,2.53,11.46,3.63,17.24.79,4.15,1.19,8.43,1.86,12.63,1.01,6.42,2.63,12.7,2.67,19.38.02.62.2,1.25.45,1.81.41.93.57,1.93.65,2.96.16,1.74.33,3.48.6,5.18.8,5.28,1.3,10.62,1.78,15.98.21,2.27.08,4.68.62,6.83.91,3.6.64,7.42,1.11,11.1.24,1.92.24,3.93.48,5.89.42,3.45.31,7.02,1.19,10.35.07.28-.01.65-.07.97-.29,1.97-.09,3.87.38,5.69.37,1.45.54,2.88.4,4.45-.1,1.23.05,2.53.81,3.81.46-1.58.61-2.88.43-4.22-.28-2.19-.61-4.36-.75-6.58-.18-2.94-.19-5.92-.58-8.83-.18-1.4.02-2.93.06-4.39.16-.02.32-.05.48-.06-.39,2.14.59,3.96.41,6.11-.25,3.07.59,5.96.93,8.94.4,3.7.55,7.44.75,11.18.07,1.2.28,2.3,1.07,3.19.82-.34.44-1.12.84-1.5.51-.45,1.09-.81.95-1.61-.35-1.92-.16-3.98-.4-5.89-.49-3.86-.62-7.77-.86-11.65-.77-12.32-1.83-24.57-2.99-36.8-.74-7.74-1.84-15.37-2.84-23.04-.66-5.02-1.96-9.83-2.75-14.8-.33-2.09-.59-4.22-.97-6.3-.77-4.25-1.36-8.55-2.41-12.72-1.13-4.46-1.36-9.2-2.7-13.59-.09-.3-.24-.63-.18-.93.64-3.01-.69-5.54-1.59-7.95-1.16-3.05-1.46-6.33-2.3-9.44-.8-2.94-1.76-5.87-2.4-8.89-.32-1.53-.39-3.12-1.06-4.55-.67-1.45-1.11-3.04-1.69-4.55-1.37-3.58-3.42-6.7-6.2-9.31,1.16,1.52,1.58,3.41,2.41,5.08,2.71,5.43,4.45,11.32,6.05,17.24,1.33,5.02,1.91,10.31,3.2,15.39,1.09,4.27,1.31,8.86,2.44,13.14.63,2.34.24,4.95,1.16,7.16,1.08,2.61.87,5.6,1.7,8.26.2.66,0,1.34-.36,2.27-.23-.7-.4-1.12-.52-1.57-1.43-4.93-1.7-10.22-2.78-15.25-.76-3.53-1.25-7.12-2.58-10.43-.17-.41-.19-.91-.23-1.38-.2-2.22-.71-4.35-1.39-6.41-.2-.58-.38-1.21-1.14-1.29.25-1.35.06-2.63-.09-3.93-.46-1.3-.2-2.98-1.59-3.97-.54,2.32-.13,3.25,1.61,3.97M127.381,302.86c-.45-2.03.58-4.01.92-6,.83-5.01,1.39-10.01,1.64-15.02.28-5.31.68-10.65,1.37-15.97.9-6.94,1.21-13.87,2.02-20.8.73-6.22,1.52-12.45,1.6-18.66.06-4.65.66-9.33,1.46-14.01.32-1.87.44-3.72.57-5.58.12-1.93.14-3.85.5-5.81.35-1.89-.19-3.24-2.02-4.18-8.05-4.12-16.63-7.09-25.24-10.04-5.9-2.02-12.01-3.53-18.05-5.21-4.4-1.23-8.97-1.992-13.44-3.068-3.24-.762-6.36-1.902-9.7-2.432-3.09-.49-6.18-.94-9.26-1.46-1.48-.25-2.89-.63-4.35-.94-5.08-1.1-10.1-2.41-15.26-3.2-2.93-.45-5.79-1.12-8.79-1.36-2.11-.18-4.13-.76-6.22-1.04-3.48-.49-6.78-1.5-10.34-1.78-2.33-.18-4.6-.81-7-.78-.23,0-.47-.07-.68-.16-.48-.21-1.11-.37-.91-1.12.15-.56.69-.7,1.18-.8,3.07-.62,6.12-.71,9.15-.69,3.09.03,6.11.6,9.28.21,1.29-.15,2.38.6,3.67.64,4.61.13,9.25.06,13.77.77,2.69.41,5.59-.19,8.41-.47,3.03-.3,6.05-.44,8.58,1.25.65.42,1.41.01,2.11.12,1.93.31,3.85.38,5.92-.11,1.65-.39,3.3.16,4.93.42,2.93.48,5.86.9,8.93.8,3.94-.11,7.67.81,11.5,1.24.71.08,1.4.12,2.13.11,1.66-.01,3.32.02,4.91.49,2.75.82,5.75.75,8.56,1.32,6.56,1.32,13.34,1.79,19.84,3.4,2.73.66,5.48,1.5,8.42,1.62,2.07.1,2.42.06,2.58-2.11.2-2.59.41-5.16.76-7.75.44-3.4.65-6.79,1.14-10.17.62-4.28,1-8.55,1.53-12.83.61-4.76.84-9.59,2.31-14.26,1.41-4.56,1.65-9.17,2.88-13.7,1.17-4.29,1.65-8.67,3.41-12.89.66-1.61.96-3.36,1.3-5.03.67-3.26,2.12-6.3,3.17-9.45.06-.16.12-.33.22-.46,3.09-3.48,4.27-7.92,6.99-11.7,2.88-3.97,6.69-5.48,10.54-7.28,2.03-.94,4.28-1.09,6.14-2.69,1.21-1.06,2.72-1.18,4.17-1.12,1.22.04,2.4-.31,3.61-.59,3.92-.89,7.85-1.31,11.75-1.05.57.03,1.1.22,1.45.63.48.59,1.05.81,1.87.48.27-.1.72-.13.91.02,1.98,1.62,4.59.47,6.88.71,1.56.17,3.13.11,4.58.73,2.35.99,4.6,2.01,6.27,3.99.96,1.14,2.23,1.98,3.17,3.21,1.42,1.89,2.55,3.94,3.62,6.06,2.34,4.65,3.93,9.68,5.6,14.65.44,1.3.7,2.72.23,4.25-.44,1.5.11,2.84.38,4.21.1.53.55.89.33,1.57-1.13,3.53.95,6.08,1.84,8.97.25.81,1.66.69,1.79,1.98.14,1.41.27,2.69.01,4.21-.51,3.06-1.13,6.33,1.42,8.61.23.2.26.51.24.86-.33,4.55.56,8.8,1.53,13.05.38,1.67.51,3.42,1.16,5.02.14.33.17.77.09,1.16-.8,3.8.39,7.09,1.37,10.44.14.46.39.83.77,1.1.66.48.69,1.16.44,1.92-.87,2.68-.27,5.02.46,7.45.84,2.79,1.23,5.78,1.76,8.7.77,4.253.83,8.67,1.11,13.04.13,2.2.68,4.33,1.07,6.48.53,3,1.09,5.98,1.6,8.99.08.54.04,1.12-.03,1.69-.22,1.71-.11,3.37.35,4.95.33,1.09.46,2.37-.14,3.3-1.01,1.51-.52,2.82-.5,4.2.03.73.05,1.71,1.32,1.38.39-.1.73.25.59.49-.53.97-.21,1.66.22,2.4.16.27.07.67-.28.83-1.16.54-.79,1.43-.65,2.11.77,3.52.45,7.26.93,10.84.15,1.1.17,2.19.83,3.11.72,1,.92,2.09-.08,3.3-.31.37-.32.68.09.97,1.13.83,1.58,2.37.87,3.76-1.78,3.48-1.11,6.62-.04,9.73.39,1.12.6,2.24.53,3.46-.07,1.22-.09,2.43.55,3.46.38.61.28,1.37.21,2.11-.09.77-.05,1.46.7,1.79.93.4,1.01,1.28,1.03,2.18.13,3.94,1.37,7.56,2.11,11.31.24,1.22.21,2.5.69,3.67.41,1.01-.12,2.11-1.23,2.73-2.32,1.28-4.69,2.25-7.25,1.74-1.9-.39-3.94-.16-5.83-.65-.98-.27-1.99.7-2.62,1.19-1.88,1.46-3.89,1.05-5.81,1.61-1.57.47-3.29-.32-4.85.99-.14.11-.49.06-.68-.03-2.17-.96-4.51-.38-6.84.06-2.61.48-5.06.09-7.38-.68-1.13-.36-2.2-.64-3.45-.52-2.2.19-3.87-.59-4.7-2.58-1.03-2.4-2-4.76-1.22-7.74.99-3.73.14-7.18-.99-10.5-2.16-6.31-5.73-11.76-9.15-17.32-2.24-3.63-4.85-6.96-7.34-10.36-1.74-2.36-3.53-4.74-5.64-6.81-1.56-1.52-2.92-3.25-4.36-4.9-.21-.22-.31-.55-.53-.74-.43-.4-.89-.96-1.59-.62-.63.31-.47.97-.53,1.53-.52,5.34-.63,10.64-.97,15.95-.42,6.67-.68,13.35-1.47,20.02-.56,4.75-.45,9.47-1.21,14.2-.45,2.83-.79,5.65-1.19,8.47-.12.91-.22,1.83.02,2.63.65,2.09.14,4.3.05,6.45-.07,1.82-.79,2.66-2.64,3.17-2.23.61-4.45,1.23-6.6,2.17-1.02.44-1.97.45-2.77-.04-1.25-.76-2.33-.27-3.27.74-3.39,3.63-7.54,4-11.76,4.24-4.04.23-7.92-.41-11.83-.77-2.19-.2-4.27-.86-6.42-1.25-.99-.17-1.46-.66-1.5-1.69-.05-.97-.21-1.9-.31-2.84" fill="#fff"></path>
</svg>